<mxfile host="app.diagrams.net" agent="Mozilla/5.0 (Windows NT 10.0; Win64; x64) AppleWebKit/537.36 (KHTML, like Gecko) Chrome/130.0.0.0 Safari/537.36" version="24.8.6">
  <diagram name="Page-1" id="e-cW1R_y-HCpv80R8FKl">
    <mxGraphModel dx="1050" dy="522" grid="1" gridSize="10" guides="1" tooltips="1" connect="1" arrows="1" fold="1" page="1" pageScale="1" pageWidth="850" pageHeight="1100" math="0" shadow="0">
      <root>
        <mxCell id="0" />
        <mxCell id="1" parent="0" />
        <mxCell id="uZ4d3hQCUZkd_1F2hXvp-1" value="aSchedulePage:&lt;div&gt;SchedulePage&lt;/div&gt;" style="html=1;whiteSpace=wrap;" parent="1" vertex="1">
          <mxGeometry x="195" y="181" width="230" height="90" as="geometry" />
        </mxCell>
        <mxCell id="uZ4d3hQCUZkd_1F2hXvp-2" value="" style="shape=umlBoundary;whiteSpace=wrap;html=1;" parent="1" vertex="1">
          <mxGeometry x="375" y="207.5" width="40" height="35" as="geometry" />
        </mxCell>
        <mxCell id="uZ4d3hQCUZkd_1F2hXvp-3" value="aMedication:&lt;div&gt;Medication&lt;/div&gt;" style="html=1;whiteSpace=wrap;" parent="1" vertex="1">
          <mxGeometry x="441" y="180" width="230" height="90" as="geometry" />
        </mxCell>
        <mxCell id="uZ4d3hQCUZkd_1F2hXvp-4" value="" style="ellipse;shape=umlControl;whiteSpace=wrap;html=1;" parent="1" vertex="1">
          <mxGeometry x="611" y="202.5" width="40" height="40" as="geometry" />
        </mxCell>
        <mxCell id="uZ4d3hQCUZkd_1F2hXvp-5" value="Caretaker" style="shape=umlActor;verticalLabelPosition=bottom;verticalAlign=top;html=1;" parent="1" vertex="1">
          <mxGeometry x="75" y="176" width="50" height="100" as="geometry" />
        </mxCell>
        <mxCell id="uZ4d3hQCUZkd_1F2hXvp-12" value="aScheduleMedication:&lt;div&gt;ScheduleMedication&lt;/div&gt;" style="html=1;whiteSpace=wrap;" parent="1" vertex="1">
          <mxGeometry x="701" y="180" width="230" height="90" as="geometry" />
        </mxCell>
        <mxCell id="uZ4d3hQCUZkd_1F2hXvp-14" value="" style="endArrow=none;html=1;rounded=0;dashed=1;startArrow=cross;startFill=0;" parent="1" edge="1">
          <mxGeometry width="50" height="50" relative="1" as="geometry">
            <mxPoint x="100" y="760" as="sourcePoint" />
            <mxPoint x="100" y="300" as="targetPoint" />
          </mxGeometry>
        </mxCell>
        <mxCell id="uZ4d3hQCUZkd_1F2hXvp-15" value="" style="endArrow=none;html=1;rounded=0;dashed=1;entryX=0.5;entryY=1;entryDx=0;entryDy=0;startArrow=cross;startFill=0;" parent="1" target="uZ4d3hQCUZkd_1F2hXvp-1" edge="1">
          <mxGeometry width="50" height="50" relative="1" as="geometry">
            <mxPoint x="310" y="760" as="sourcePoint" />
            <mxPoint x="309.5" y="270" as="targetPoint" />
          </mxGeometry>
        </mxCell>
        <mxCell id="uZ4d3hQCUZkd_1F2hXvp-16" value="" style="endArrow=none;html=1;rounded=0;dashed=1;entryX=0.5;entryY=1;entryDx=0;entryDy=0;startArrow=cross;startFill=0;" parent="1" edge="1">
          <mxGeometry width="50" height="50" relative="1" as="geometry">
            <mxPoint x="560" y="760" as="sourcePoint" />
            <mxPoint x="560" y="271" as="targetPoint" />
          </mxGeometry>
        </mxCell>
        <mxCell id="uZ4d3hQCUZkd_1F2hXvp-17" value="" style="endArrow=none;html=1;rounded=0;dashed=1;entryX=0.5;entryY=1;entryDx=0;entryDy=0;startArrow=cross;startFill=0;" parent="1" edge="1">
          <mxGeometry width="50" height="50" relative="1" as="geometry">
            <mxPoint x="820" y="760" as="sourcePoint" />
            <mxPoint x="820" y="270" as="targetPoint" />
          </mxGeometry>
        </mxCell>
        <mxCell id="uZ4d3hQCUZkd_1F2hXvp-18" value="" style="endArrow=none;html=1;rounded=0;strokeWidth=6;" parent="1" edge="1">
          <mxGeometry width="50" height="50" relative="1" as="geometry">
            <mxPoint x="100" y="680" as="sourcePoint" />
            <mxPoint x="99.5" y="300" as="targetPoint" />
          </mxGeometry>
        </mxCell>
        <mxCell id="uZ4d3hQCUZkd_1F2hXvp-19" value="" style="endArrow=none;html=1;rounded=0;strokeWidth=6;" parent="1" edge="1">
          <mxGeometry width="50" height="50" relative="1" as="geometry">
            <mxPoint x="310" y="610" as="sourcePoint" />
            <mxPoint x="309.5" y="300" as="targetPoint" />
          </mxGeometry>
        </mxCell>
        <mxCell id="uZ4d3hQCUZkd_1F2hXvp-22" value="" style="endArrow=none;html=1;rounded=0;strokeWidth=6;" parent="1" edge="1">
          <mxGeometry width="50" height="50" relative="1" as="geometry">
            <mxPoint x="560" y="400" as="sourcePoint" />
            <mxPoint x="560" y="338" as="targetPoint" />
          </mxGeometry>
        </mxCell>
        <mxCell id="uZ4d3hQCUZkd_1F2hXvp-26" value="" style="endArrow=none;html=1;rounded=0;strokeWidth=6;" parent="1" edge="1">
          <mxGeometry width="50" height="50" relative="1" as="geometry">
            <mxPoint x="820" y="470" as="sourcePoint" />
            <mxPoint x="820" y="360" as="targetPoint" />
          </mxGeometry>
        </mxCell>
        <mxCell id="uZ4d3hQCUZkd_1F2hXvp-44" value="" style="endArrow=none;html=1;rounded=0;strokeWidth=6;" parent="1" edge="1">
          <mxGeometry width="50" height="50" relative="1" as="geometry">
            <mxPoint x="1076" y="610" as="sourcePoint" />
            <mxPoint x="1076" y="500" as="targetPoint" />
          </mxGeometry>
        </mxCell>
        <mxCell id="Z9U59-RSv3r_Wv2yS_4F-1" value="" style="ellipse;shape=umlControl;whiteSpace=wrap;html=1;" parent="1" vertex="1">
          <mxGeometry x="876" y="202.5" width="40" height="40" as="geometry" />
        </mxCell>
        <mxCell id="5aZ_p2GVyvDFZMi8kxx--1" value="anAlarm:&lt;div&gt;AlarmTimer&lt;/div&gt;" style="html=1;whiteSpace=wrap;" vertex="1" parent="1">
          <mxGeometry x="960" y="400" width="230" height="90" as="geometry" />
        </mxCell>
        <mxCell id="5aZ_p2GVyvDFZMi8kxx--2" value="" style="ellipse;shape=umlControl;whiteSpace=wrap;html=1;" vertex="1" parent="1">
          <mxGeometry x="1130" y="422.5" width="40" height="40" as="geometry" />
        </mxCell>
        <mxCell id="5aZ_p2GVyvDFZMi8kxx--3" value="" style="endArrow=open;html=1;rounded=0;endFill=0;" edge="1" parent="1">
          <mxGeometry width="50" height="50" relative="1" as="geometry">
            <mxPoint x="100" y="300" as="sourcePoint" />
            <mxPoint x="310" y="300" as="targetPoint" />
          </mxGeometry>
        </mxCell>
        <mxCell id="5aZ_p2GVyvDFZMi8kxx--4" value="chooseMedication()" style="text;html=1;align=center;verticalAlign=middle;resizable=0;points=[];autosize=1;strokeColor=none;fillColor=none;" vertex="1" parent="1">
          <mxGeometry x="145" y="274" width="130" height="30" as="geometry" />
        </mxCell>
        <mxCell id="5aZ_p2GVyvDFZMi8kxx--5" value="" style="endArrow=open;html=1;rounded=0;endFill=0;" edge="1" parent="1">
          <mxGeometry width="50" height="50" relative="1" as="geometry">
            <mxPoint x="99" y="332" as="sourcePoint" />
            <mxPoint x="309" y="332" as="targetPoint" />
          </mxGeometry>
        </mxCell>
        <mxCell id="5aZ_p2GVyvDFZMi8kxx--6" value="setDayAndTime()" style="text;html=1;align=center;verticalAlign=middle;resizable=0;points=[];autosize=1;strokeColor=none;fillColor=none;" vertex="1" parent="1">
          <mxGeometry x="149" y="308" width="120" height="30" as="geometry" />
        </mxCell>
        <mxCell id="5aZ_p2GVyvDFZMi8kxx--7" value="" style="endArrow=open;html=1;rounded=0;endFill=0;" edge="1" parent="1">
          <mxGeometry width="50" height="50" relative="1" as="geometry">
            <mxPoint x="310" y="338" as="sourcePoint" />
            <mxPoint x="560" y="338" as="targetPoint" />
          </mxGeometry>
        </mxCell>
        <mxCell id="5aZ_p2GVyvDFZMi8kxx--8" value="enterMessage()" style="text;html=1;align=center;verticalAlign=middle;resizable=0;points=[];autosize=1;strokeColor=none;fillColor=none;" vertex="1" parent="1">
          <mxGeometry x="365" y="312" width="110" height="30" as="geometry" />
        </mxCell>
        <mxCell id="5aZ_p2GVyvDFZMi8kxx--9" value="" style="endArrow=open;html=1;rounded=0;endFill=0;" edge="1" parent="1">
          <mxGeometry width="50" height="50" relative="1" as="geometry">
            <mxPoint x="560" y="360" as="sourcePoint" />
            <mxPoint x="820" y="360" as="targetPoint" />
          </mxGeometry>
        </mxCell>
        <mxCell id="5aZ_p2GVyvDFZMi8kxx--10" value="retrieveInformation()" style="text;html=1;align=center;verticalAlign=middle;resizable=0;points=[];autosize=1;strokeColor=none;fillColor=none;" vertex="1" parent="1">
          <mxGeometry x="635" y="334" width="130" height="30" as="geometry" />
        </mxCell>
        <mxCell id="5aZ_p2GVyvDFZMi8kxx--12" value="" style="endArrow=open;html=1;rounded=0;endFill=0;" edge="1" parent="1">
          <mxGeometry width="50" height="50" relative="1" as="geometry">
            <mxPoint x="560" y="370" as="sourcePoint" />
            <mxPoint x="310" y="370" as="targetPoint" />
          </mxGeometry>
        </mxCell>
        <mxCell id="5aZ_p2GVyvDFZMi8kxx--13" value="displayList()" style="text;html=1;align=center;verticalAlign=middle;resizable=0;points=[];autosize=1;strokeColor=none;fillColor=none;" vertex="1" parent="1">
          <mxGeometry x="374" y="363" width="90" height="30" as="geometry" />
        </mxCell>
        <mxCell id="5aZ_p2GVyvDFZMi8kxx--14" value="" style="endArrow=open;html=1;rounded=0;endFill=0;" edge="1" parent="1">
          <mxGeometry width="50" height="50" relative="1" as="geometry">
            <mxPoint x="310" y="430" as="sourcePoint" />
            <mxPoint x="820" y="430" as="targetPoint" />
          </mxGeometry>
        </mxCell>
        <mxCell id="5aZ_p2GVyvDFZMi8kxx--15" value="viewDetailAndSave()" style="text;html=1;align=center;verticalAlign=middle;resizable=0;points=[];autosize=1;strokeColor=none;fillColor=none;" vertex="1" parent="1">
          <mxGeometry x="354" y="423.5" width="130" height="30" as="geometry" />
        </mxCell>
        <mxCell id="5aZ_p2GVyvDFZMi8kxx--16" value="" style="endArrow=open;html=1;rounded=0;endFill=0;entryX=0;entryY=0.5;entryDx=0;entryDy=0;dashed=1;" edge="1" parent="1" target="5aZ_p2GVyvDFZMi8kxx--1">
          <mxGeometry width="50" height="50" relative="1" as="geometry">
            <mxPoint x="820" y="445" as="sourcePoint" />
            <mxPoint x="830" y="370" as="targetPoint" />
          </mxGeometry>
        </mxCell>
        <mxCell id="5aZ_p2GVyvDFZMi8kxx--17" value="createObject()" style="text;html=1;align=center;verticalAlign=middle;resizable=0;points=[];autosize=1;strokeColor=none;fillColor=none;" vertex="1" parent="1">
          <mxGeometry x="840" y="420" width="100" height="30" as="geometry" />
        </mxCell>
        <mxCell id="5aZ_p2GVyvDFZMi8kxx--18" value="" style="endArrow=none;dashed=1;html=1;rounded=0;entryX=0.5;entryY=1;entryDx=0;entryDy=0;startArrow=cross;startFill=0;" edge="1" parent="1" target="5aZ_p2GVyvDFZMi8kxx--1">
          <mxGeometry width="50" height="50" relative="1" as="geometry">
            <mxPoint x="1080" y="760" as="sourcePoint" />
            <mxPoint x="1090" y="550" as="targetPoint" />
          </mxGeometry>
        </mxCell>
        <mxCell id="5aZ_p2GVyvDFZMi8kxx--20" value="" style="endArrow=none;html=1;rounded=0;endFill=0;dashed=1;startArrow=classic;startFill=1;" edge="1" parent="1">
          <mxGeometry width="50" height="50" relative="1" as="geometry">
            <mxPoint x="101" y="579" as="sourcePoint" />
            <mxPoint x="310" y="579" as="targetPoint" />
          </mxGeometry>
        </mxCell>
        <mxCell id="5aZ_p2GVyvDFZMi8kxx--21" value="viewDetail()" style="text;html=1;align=center;verticalAlign=middle;resizable=0;points=[];autosize=1;strokeColor=none;fillColor=none;" vertex="1" parent="1">
          <mxGeometry x="135" y="553" width="90" height="30" as="geometry" />
        </mxCell>
        <mxCell id="5aZ_p2GVyvDFZMi8kxx--22" value="" style="endArrow=none;html=1;rounded=0;endFill=0;startArrow=classic;startFill=1;dashed=1;" edge="1" parent="1">
          <mxGeometry width="50" height="50" relative="1" as="geometry">
            <mxPoint x="312" y="590" as="sourcePoint" />
            <mxPoint x="1072" y="590" as="targetPoint" />
          </mxGeometry>
        </mxCell>
        <mxCell id="5aZ_p2GVyvDFZMi8kxx--23" value="displayInterInformation()" style="text;html=1;align=center;verticalAlign=middle;resizable=0;points=[];autosize=1;strokeColor=none;fillColor=none;" vertex="1" parent="1">
          <mxGeometry x="595" y="565" width="150" height="30" as="geometry" />
        </mxCell>
      </root>
    </mxGraphModel>
  </diagram>
</mxfile>
